<?xml version="1.0" standalone="no"?>
<!DOCTYPE svg PUBLIC "-//W3C//DTD SVG 20010904//EN"
 "http://www.w3.org/TR/2001/REC-SVG-20010904/DTD/svg10.dtd">
<svg version="1.0" xmlns="http://www.w3.org/2000/svg"
 width="1290.000000pt" height="1290.000000pt" viewBox="0 0 1290.000000 1290.000000"
 preserveAspectRatio="xMidYMid meet">
<metadata>
Created by potrace 1.14, written by Peter Selinger 2001-2017
</metadata>
<g transform="translate(0.000000,1290.000000) scale(0.100000,-0.100000)"
fill="#000000" stroke="none">
<path d="M3970 9070 c-63 -43 -150 -102 -193 -132 -135 -92 -181 -130 -223
-182 -87 -107 -126 -226 -120 -365 5 -119 27 -174 149 -369 114 -184 195 -319
231 -384 12 -24 32 -59 43 -78 83 -144 156 -280 231 -430 45 -90 71 -128 122
-180 77 -77 95 -91 138 -109 17 -7 32 -17 32 -21 0 -4 10 -10 23 -13 39 -9
186 -64 182 -68 -2 -2 9 -4 23 -5 62 -1 220 -29 215 -37 -3 -6 1 -6 10 -1 9 5
46 7 83 4 37 -3 106 -5 155 -5 48 0 85 -3 83 -7 -8 -13 11 -9 26 5 11 9 11 8
0 -7 -14 -18 -13 -19 3 -13 10 4 21 7 23 7 3 0 3 4 0 8 -2 4 4 8 14 8 14 0 16
-3 8 -13 -6 -7 -16 -13 -23 -13 -17 0 -33 -40 -29 -72 1 -16 -2 -28 -7 -28 -6
0 -8 4 -5 9 3 5 -1 12 -10 15 -24 9 -29 7 -17 -5 6 -6 9 -18 6 -27 -5 -11 -3
-13 8 -7 8 4 11 5 8 1 -7 -8 32 -54 42 -50 3 2 6 -3 6 -10 0 -20 -25 -8 -32
15 -4 10 -11 19 -16 19 -13 0 -11 -14 3 -28 8 -8 9 -12 1 -12 -6 0 -14 6 -16
13 -4 10 -6 10 -6 0 -1 -7 -8 -13 -16 -13 -8 0 -15 -5 -15 -11 0 -6 9 -9 20
-6 11 3 23 1 26 -5 4 -6 10 -5 15 3 4 7 10 11 14 8 3 -3 -5 -17 -17 -31 -28
-30 -39 -70 -14 -49 16 14 40 6 31 -10 -4 -5 11 -7 34 -5 23 2 39 1 37 -3 -8
-13 -81 -7 -78 7 1 6 -2 12 -7 12 -14 0 -22 -16 -13 -24 11 -11 11 -67 0 -60
-5 4 -7 18 -3 33 l7 26 -26 -24 c-14 -14 -26 -21 -26 -16 0 4 10 16 22 26 11
11 19 19 17 20 -2 0 -12 2 -22 4 -12 2 -17 -1 -13 -10 3 -9 0 -12 -8 -9 -8 3
-12 -5 -12 -26 0 -34 0 -34 26 -20 28 15 38 -21 11 -39 -12 -7 -21 -18 -21
-23 0 -6 7 -5 15 2 10 9 15 9 15 1 0 -6 -5 -11 -11 -11 -5 0 -7 -6 -3 -12 5
-8 0 -7 -11 2 -17 14 -18 13 -12 -3 7 -20 -15 -62 -26 -50 -4 3 -7 -1 -7 -10
0 -9 4 -16 9 -15 13 4 71 -41 71 -55 0 -7 -9 -2 -18 11 -17 22 -19 23 -33 6
-12 -16 -12 -17 4 -11 11 4 16 3 12 -3 -3 -6 -1 -10 4 -10 6 0 11 -5 11 -11 0
-5 -4 -7 -10 -4 -5 3 -10 1 -10 -4 0 -6 5 -11 10 -11 6 0 10 -5 10 -11 0 -8
-5 -8 -15 1 -13 11 -15 9 -13 -11 2 -17 -2 -23 -13 -21 -9 1 -16 -5 -16 -13 0
-22 12 -19 51 16 20 17 41 28 48 26 10 -4 10 -6 0 -6 -7 -1 -25 -12 -39 -25
-25 -24 -25 -24 -5 -35 17 -9 23 -8 31 6 6 10 11 13 11 7 0 -6 -7 -17 -15 -24
-12 -10 -18 -10 -30 0 -23 19 -28 6 -7 -14 20 -17 65 -10 62 9 -1 5 3 10 10
12 6 1 7 0 0 -4 -5 -2 -8 -9 -4 -14 3 -5 -6 -13 -20 -19 -14 -5 -26 -12 -26
-16 0 -3 7 -4 15 0 8 3 14 2 14 -2 -3 -20 2 -32 12 -26 8 4 7 0 -1 -15 -6 -12
-15 -19 -21 -16 -5 4 -9 0 -9 -9 0 -8 3 -16 8 -19 4 -2 1 -2 -5 -1 -18 5 -16
-12 4 -32 16 -16 16 -16 -4 -10 -20 6 -21 5 -10 -18 6 -13 15 -22 19 -20 9 6
9 5 13 -54 1 -23 -2 -45 -6 -48 -5 -3 -6 3 -2 13 6 16 5 16 -10 4 -13 -10 -20
-11 -31 -2 -11 9 -15 9 -18 0 -3 -8 -9 -9 -19 -4 -12 8 -36 13 -86 17 -7 1
-13 6 -13 11 0 5 8 6 18 2 13 -5 14 -3 5 5 -7 8 -17 9 -29 2 -12 -7 -31 -5
-63 7 -25 9 -48 18 -51 21 -3 3 -14 6 -25 8 -11 2 -25 10 -31 18 -6 7 -14 11
-17 8 -12 -12 -154 85 -224 153 -18 17 -33 28 -33 25 0 -4 7 -35 15 -68 28
-118 37 -287 22 -379 -4 -22 -10 -56 -13 -75 -8 -49 -42 -135 -80 -208 -259
-490 -927 -599 -1333 -217 -178 167 -272 391 -266 635 3 110 43 291 99 446 60
166 66 288 22 415 -29 82 -62 136 -126 200 -63 64 -133 103 -263 148 -61 22
-183 64 -269 94 l-157 55 -11 -31 c-12 -33 -101 -285 -171 -487 -75 -216 -145
-485 -165 -633 -13 -98 -12 -366 2 -470 46 -346 191 -680 412 -952 68 -84 212
-229 272 -274 19 -14 41 -32 48 -39 25 -23 207 -139 267 -170 218 -111 460
-186 675 -209 206 -22 498 -1 680 48 41 11 82 21 90 23 60 15 213 78 306 126
280 144 518 349 688 594 85 121 97 142 160 271 126 257 192 534 191 801 l0 91
38 1 c97 4 336 81 487 157 201 101 310 185 560 430 173 169 224 207 325 246
106 41 262 44 376 9 38 -12 102 -43 142 -69 152 -99 232 -231 267 -441 59
-346 65 -426 65 -815 0 -262 -6 -417 -21 -515 -8 -58 -25 -154 -30 -176 -7
-26 38 -49 173 -88 125 -37 247 -53 378 -51 130 3 168 8 295 40 165 42 293
102 440 209 116 84 223 209 545 639 370 495 360 483 369 468 4 -6 5 -11 2 -11
-3 0 -2 -10 3 -23 5 -13 12 -41 15 -63 4 -21 11 -55 16 -74 5 -19 11 -46 14
-60 12 -70 40 -157 58 -182 27 -39 88 -68 140 -68 62 0 416 93 481 127 185 93
299 276 299 478 0 54 -7 116 -17 155 -9 36 -19 74 -21 85 -2 11 -6 29 -9 40
-66 282 -92 466 -111 785 -3 58 -7 119 -9 135 -2 17 -4 35 -4 41 -1 11 -56 29
-121 40 -14 3 -32 7 -40 9 -32 9 -159 19 -240 19 -292 0 -548 -78 -794 -241
-163 -109 -261 -216 -546 -596 -139 -185 -255 -336 -257 -334 -4 4 -19 89 -29
162 -69 502 -330 923 -739 1190 -136 89 -402 202 -520 221 -22 3 -43 8 -46 10
-18 11 -170 26 -289 28 -338 8 -659 -85 -940 -272 -105 -70 -181 -136 -340
-294 -152 -151 -222 -209 -303 -249 -86 -44 -126 -57 -201 -64 l-65 -7 -25 50
c-14 28 -69 149 -121 269 -53 120 -106 238 -117 263 -85 184 -119 253 -185
385 -41 83 -78 155 -83 160 -4 6 -25 44 -47 85 -64 120 -162 290 -281 490 -93
156 -443 682 -481 722 -3 4 -58 -28 -121 -72z m1331 -2377 c11 -15 11 -16 -1
-6 -10 10 -16 9 -25 -4 -10 -13 -14 -13 -20 -3 -5 8 -4 11 2 7 6 -4 13 0 17 8
7 19 11 19 27 -2z m-47 -31 c3 -5 -1 -9 -9 -9 -8 0 -15 4 -15 9 0 4 4 8 9 8 6
0 12 -4 15 -8z m-34 -17 c7 -9 8 -15 2 -15 -5 0 -12 7 -16 15 -3 8 -4 15 -2
15 2 0 9 -7 16 -15z m-14 -38 c-8 -6 -8 -10 2 -14 6 -2 12 -11 12 -19 0 -9 5
-12 12 -8 7 5 8 3 3 -6 -6 -10 -11 -10 -20 3 -7 9 -14 15 -16 12 -3 -2 -5 11
-6 30 0 27 2 31 12 22 9 -9 10 -14 1 -20z m48 17 c3 -8 2 -12 -4 -9 -6 3 -10
10 -10 16 0 14 7 11 14 -7z m36 -18 c0 -3 -4 -8 -10 -11 -5 -3 -10 -1 -10 4 0
6 5 11 10 11 6 0 10 -2 10 -4z m-27 -26 c3 -11 1 -18 -4 -14 -5 3 -9 12 -9 20
0 20 7 17 13 -6z m-73 -31 c0 -5 4 -8 9 -4 6 3 15 -5 21 -17 10 -21 10 -21 -3
-6 -8 10 -16 15 -19 13 -3 -3 -11 1 -18 10 -8 10 -9 15 -1 15 6 0 11 -5 11
-11z m55 -9 c-3 -5 -1 -10 6 -10 7 0 10 -3 6 -6 -9 -9 -28 6 -22 17 4 5 8 9
11 9 3 0 2 -4 -1 -10z m-15 -80 c0 -5 -4 -10 -10 -10 -5 0 -10 5 -10 10 0 6 5
10 10 10 6 0 10 -4 10 -10z m-24 -35 c2 -23 0 -25 -14 -13 -27 20 -28 22 -9
15 15 -6 17 -3 11 16 -3 12 -3 19 1 15 4 -4 9 -19 11 -33z m114 -21 c0 -8 -19
-13 -24 -6 -3 5 1 9 9 9 8 0 15 -2 15 -3z m-120 -64 c0 -5 -2 -10 -4 -10 -3 0
-8 5 -11 10 -3 6 -1 10 4 10 6 0 11 -4 11 -10z m-14 -56 c-3 -8 -11 -12 -17
-9 -6 4 -9 1 -8 -6 1 -8 -3 -25 -9 -39 -6 -15 -11 -19 -11 -9 -1 9 2 19 6 23
4 4 8 15 8 24 0 9 6 16 13 15 6 -2 12 7 13 20 0 12 3 16 6 9 3 -7 2 -20 -1
-28z m65 19 c13 -16 12 -17 -3 -4 -10 7 -18 15 -18 17 0 8 8 3 21 -13z m-41
-43 c0 -5 -2 -10 -4 -10 -3 0 -8 5 -11 10 -3 6 -1 10 4 10 6 0 11 -4 11 -10z
m-25 -37 c-1 -22 -7 -28 -26 -30 -23 -1 -23 -1 -1 4 12 2 20 9 16 14 -5 9 1
39 9 39 1 0 2 -12 2 -27z m35 2 c-6 -8 -9 -19 -5 -25 3 -5 4 -10 1 -10 -3 0
-10 10 -17 21 -7 13 -7 19 -1 15 6 -3 13 -2 17 4 3 5 9 10 12 10 3 0 0 -7 -7
-15z m-93 -24 c0 -11 -5 -17 -9 -15 -4 3 -8 0 -8 -5 0 -6 6 -11 13 -11 8 0 22
-9 32 -20 19 -21 13 -28 -8 -10 -7 6 -20 16 -31 24 -16 11 -17 15 -5 34 17 27
18 27 16 3z m78 -20 c3 -6 -5 -15 -17 -21 -21 -10 -21 -10 -6 3 10 8 15 17 11
20 -3 4 -4 7 0 7 3 0 8 -4 12 -9z m42 -73 c4 -28 -6 -18 -12 12 -2 12 -1 20 2
16 4 -4 8 -16 10 -28z m-31 9 c4 -3 -3 -4 -16 -2 -18 3 -21 1 -17 -15 3 -11 0
-23 -5 -27 -7 -3 -8 -1 -4 5 4 7 2 12 -4 12 -7 0 -8 6 0 19 9 18 32 22 46 8z
m-61 -37 c3 -5 1 -10 -4 -10 -6 0 -11 5 -11 10 0 6 2 10 4 10 3 0 8 -4 11 -10z
m93 -25 c-3 -3 -9 2 -12 12 -6 14 -5 15 5 6 7 -7 10 -15 7 -18z m39 10 c0 -8
-4 -15 -9 -15 -10 0 -11 14 -1 23 9 10 10 9 10 -8z m-81 -30 c-3 -23 -13 -28
-33 -15 -16 10 -16 10 4 5 18 -5 22 -3 17 9 -3 9 -2 16 4 16 6 0 9 -7 8 -15z
m-56 -25 c0 -5 -5 -10 -11 -10 -5 0 -7 5 -4 10 3 6 8 10 11 10 2 0 4 -4 4 -10z
m95 -30 c3 -5 1 -10 -4 -10 -6 0 -11 5 -11 10 0 6 2 10 4 10 3 0 8 -4 11 -10z
m5 -44 c0 -2 -6 -9 -14 -15 -11 -9 -16 -9 -22 0 -4 7 -3 9 4 5 6 -3 13 -2 17
4 6 10 15 14 15 6z m17 -29 c0 -8 -6 -14 -14 -14 -9 0 -10 4 -2 14 6 7 12 13
14 13 1 0 2 -6 2 -13z m-66 -20 c-10 -9 -11 -8 -5 6 3 10 9 15 12 12 3 -3 0
-11 -7 -18z m42 -27 c3 -11 1 -18 -4 -14 -5 3 -9 12 -9 20 0 9 -5 12 -12 8 -7
-4 -8 -3 -4 5 10 15 22 7 29 -19z m24 5 c0 -8 -4 -12 -9 -9 -5 3 -6 10 -3 15
9 13 12 11 12 -6z m-73 -10 c-4 -8 -8 -15 -10 -15 -2 0 -4 7 -4 15 0 8 4 15
10 15 5 0 7 -7 4 -15z m30 -11 c3 -8 2 -12 -4 -9 -6 3 -10 10 -10 16 0 14 7
11 14 -7z m126 -4 c0 -5 -5 -10 -11 -10 -5 0 -7 5 -4 10 3 6 8 10 11 10 2 0 4
-4 4 -10z m-147 -19 c-4 -3 -10 -9 -13 -12 -3 -4 -10 -1 -17 6 -9 10 -6 13 13
13 14 0 21 -3 17 -7z m91 0 c-8 -9 -44 -11 -44 -3 0 4 11 8 25 8 13 0 22 -2
19 -5z m-93 -35 c-9 -11 -8 -15 4 -20 9 -3 15 0 15 9 0 8 5 15 10 15 16 0 -5
-33 -21 -35 -8 -1 -23 7 -33 18 -17 18 -17 20 -2 14 10 -4 19 -1 23 9 3 8 8
13 11 10 3 -3 0 -12 -7 -20z m107 -51 c-3 -3 -9 2 -12 12 -6 14 -5 15 5 6 7
-7 10 -15 7 -18z m-43 5 c3 -5 1 -10 -4 -10 -6 0 -11 5 -11 10 0 6 2 10 4 10
3 0 8 -4 11 -10z m-55 -10 c0 -5 -4 -10 -10 -10 -5 0 -10 5 -10 10 0 6 5 10
10 10 6 0 10 -4 10 -10z m175 -10 c3 -5 1 -10 -4 -10 -6 0 -11 5 -11 10 0 6 2
10 4 10 3 0 8 -4 11 -10z m-132 -7 c-7 -2 -19 -2 -25 0 -7 3 -2 5 12 5 14 0
19 -2 13 -5z m51 -6 c-3 -8 -11 -14 -19 -14 -21 0 -19 15 3 20 9 3 18 5 19 6
1 0 0 -5 -3 -12z m-84 -7 c12 -7 10 -9 -8 -7 -12 0 -22 5 -22 9 0 11 12 10 30
-2z m45 -19 c3 -5 0 -13 -6 -17 -8 -4 -9 -3 -5 4 4 7 3 12 -3 12 -5 0 -12 -4
-16 -9 -7 -12 -45 -10 -45 2 0 5 9 6 19 2 11 -3 22 -1 26 5 8 13 22 13 30 1z
m75 -17 c0 -8 -19 -13 -24 -6 -3 5 1 9 9 9 8 0 15 -2 15 -3z"/>
<path d="M4947 6669 c6 -22 20 -26 20 -4 0 8 -6 16 -13 19 -7 3 -10 -2 -7 -15z"/>
<path d="M4995 6680 c3 -5 8 -10 11 -10 2 0 4 5 4 10 0 6 -5 10 -11 10 -5 0
-7 -4 -4 -10z"/>
<path d="M5076 6678 c3 -4 1 -8 -4 -8 -16 0 -23 -31 -11 -46 7 -8 7 -14 1 -14
-5 0 -15 7 -22 15 -10 12 -10 18 1 32 8 9 9 14 2 10 -6 -4 -13 -4 -16 0 -2 5
-2 2 0 -6 2 -9 -2 -11 -14 -7 -13 5 -11 0 6 -18 14 -15 22 -26 19 -26 -10 0
-58 27 -55 31 1 2 0 3 -2 1 -7 -4 -11 -65 -6 -79 6 -17 35 -5 35 14 0 9 -8 22
-17 29 -17 12 -17 13 -1 14 9 0 21 -8 27 -17 5 -10 12 -17 15 -15 13 5 26 1
26 -8 0 -5 -6 -7 -14 -4 -18 7 -38 -28 -30 -50 5 -12 2 -15 -10 -10 -9 3 -13
11 -9 18 4 6 -1 5 -10 -3 -9 -7 -17 -20 -17 -27 0 -8 -4 -14 -10 -14 -5 0 -10
-5 -10 -11 0 -8 4 -8 15 1 8 6 19 8 26 4 7 -4 20 3 31 17 11 13 17 18 13 11
-4 -7 -1 -20 7 -29 11 -14 11 -16 -3 -11 -9 3 -22 2 -30 -3 -12 -7 -12 -9 1
-10 8 -1 19 -1 23 0 5 1 6 -3 2 -9 -3 -5 -17 -7 -31 -4 -14 4 -24 2 -24 -5 0
-6 8 -8 18 -5 12 4 10 0 -7 -15 -13 -12 -19 -21 -13 -21 6 0 18 7 27 16 9 9
19 14 22 10 4 -3 3 -6 -2 -6 -4 0 -2 -6 5 -14 12 -16 16 -15 -62 -17 -21 -1
-35 -6 -32 -11 3 -5 15 -6 27 -2 19 6 20 5 8 -9 -7 -9 -18 -14 -24 -10 -6 3
-7 1 -3 -5 4 -6 13 -9 22 -5 8 3 14 2 13 -3 -4 -23 2 -33 18 -27 11 4 14 3 9
-5 -5 -8 -1 -10 11 -5 10 3 15 3 11 -2 -4 -4 -3 -14 3 -22 15 -18 4 -16 -27 3
-23 16 -24 16 -17 -2 6 -16 4 -17 -8 -7 -13 10 -19 10 -35 -3 -18 -15 -18 -15
2 -5 16 8 25 7 33 -3 6 -7 8 -16 4 -19 -3 -4 0 -13 7 -22 8 -9 8 -15 2 -15 -6
0 -13 4 -17 10 -3 5 -12 7 -21 3 -9 -3 -14 0 -12 8 2 8 -7 14 -22 16 l-25 2
25 -7 c15 -5 20 -11 13 -15 -6 -4 -19 -4 -30 0 -10 3 -15 2 -10 -3 4 -4 24 -9
44 -9 20 -1 39 -7 41 -13 2 -8 -3 -10 -15 -6 -14 4 -15 4 -4 -4 8 -6 10 -15 6
-22 -6 -9 -12 -6 -21 11 -7 13 -13 18 -14 12 0 -7 9 -22 19 -32 20 -20 20 -20
0 -26 -10 -4 -19 -11 -19 -17 0 -7 5 -7 14 1 16 13 49 4 40 -11 -4 -6 3 -18
15 -27 15 -11 20 -23 15 -34 -5 -14 -9 -15 -21 -6 -7 7 -12 18 -9 25 6 15 -24
28 -37 15 -5 -5 -6 -19 -2 -30 5 -16 12 -20 26 -16 14 5 17 3 13 -9 -3 -9 -10
-13 -15 -10 -5 3 -6 -2 -3 -10 3 -9 1 -16 -5 -16 -6 0 -11 5 -11 10 0 6 -5 10
-10 10 -6 0 -5 -8 2 -19 7 -11 14 -19 17 -19 20 2 31 -3 26 -12 -4 -6 -11 -8
-16 -5 -5 3 -6 -2 -2 -11 4 -11 3 -15 -5 -10 -12 7 -49 -41 -38 -51 3 -3 6 -1
6 6 0 7 4 9 10 6 5 -3 7 0 4 9 -4 10 0 13 13 11 10 -2 21 -4 26 -4 4 -1 7 -8
7 -16 0 -8 5 -15 10 -15 12 0 9 22 -5 33 -6 5 -4 7 5 4 8 -2 14 -10 12 -16 -1
-6 3 -11 10 -11 19 0 -8 -23 -32 -27 -13 -2 -18 2 -14 11 3 8 1 17 -5 21 -7 4
-8 0 -5 -10 4 -9 3 -15 -2 -14 -5 1 -16 1 -24 0 -12 -1 -12 -3 2 -12 11 -6 15
-16 11 -27 -4 -13 -2 -13 10 3 12 15 18 17 28 8 13 -13 5 -43 -12 -43 -8 0 -8
4 1 15 7 9 8 15 2 15 -5 0 -12 -7 -16 -15 -3 -8 -11 -14 -18 -13 -8 2 -13 -7
-13 -22 0 -26 26 -36 31 -12 1 7 0 8 -3 2 -8 -16 -19 -12 -20 9 -2 19 11 22
35 8 6 -5 12 -4 12 0 0 5 9 9 19 10 13 1 18 -3 14 -13 -3 -7 -10 -11 -16 -7
-6 4 -7 1 -2 -7 6 -10 4 -12 -8 -7 -9 3 -18 -1 -21 -9 -8 -21 -8 -24 5 -24 5
0 8 4 5 9 -8 13 37 22 49 10 6 -7 7 -10 0 -9 -32 7 -38 -2 -12 -18 15 -10 25
-21 22 -24 -3 -2 2 -5 10 -5 11 0 12 4 4 14 -6 7 -8 13 -5 13 4 0 2 9 -4 20
-6 11 -8 20 -6 20 3 0 15 -19 27 -41 15 -29 24 -38 31 -31 7 7 17 8 29 2 20
-11 31 0 35 36 1 15 -4 25 -16 29 -11 3 -17 12 -14 20 3 7 0 16 -6 20 -8 5 -8
10 0 20 8 10 5 13 -15 13 -24 0 -25 -2 -10 -18 8 -9 12 -20 8 -25 -5 -4 -3 -5
3 -2 6 4 10 -3 9 -16 -2 -12 7 -30 19 -40 13 -11 15 -16 6 -14 -8 2 -12 2 -7
0 4 -3 7 -9 7 -15 0 -6 -6 -6 -15 2 -12 10 -18 10 -30 0 -15 -12 -20 -4 -16
23 0 4 -4 7 -10 7 -6 0 -1 8 11 18 15 12 20 24 15 31 -6 10 -9 10 -15 1 -5 -9
-9 -9 -14 -1 -4 6 -2 11 3 11 6 0 2 9 -10 21 -16 16 -18 23 -9 35 7 7 16 12
20 9 4 -3 11 2 14 11 6 17 -1 14 -46 -19 -15 -11 -25 -24 -22 -29 3 -4 0 -8
-6 -8 -9 0 -9 16 -1 60 1 3 6 -2 11 -10 12 -19 32 -1 37 32 3 22 3 22 -10 4
-9 -12 -16 -15 -20 -9 -7 11 16 25 51 32 4 1 1 5 -7 10 -8 5 -23 8 -33 6 -10
-2 -18 0 -18 6 0 9 10 12 43 12 9 0 17 4 17 10 0 6 6 2 14 -8 15 -20 4 -61
-13 -50 -5 3 -12 -2 -15 -11 -5 -12 -2 -15 11 -9 10 4 24 8 31 8 7 0 10 7 8
14 -3 8 -1 11 4 8 19 -12 10 13 -15 43 -13 16 -22 32 -19 35 3 3 -3 4 -13 4
-19 -2 -25 21 -9 41 7 11 11 11 19 0 6 -9 7 -8 3 5 -3 10 -1 28 5 39 7 12 7
18 1 14 -6 -3 -12 -1 -14 6 -2 6 -10 8 -17 4 -9 -6 -8 -12 6 -23 10 -8 12 -12
6 -8 -9 4 -11 1 -6 -12 6 -15 5 -16 -9 -3 -8 8 -15 24 -14 35 1 15 -5 19 -21
18 -14 -2 -22 2 -20 10 1 7 -7 11 -20 10 -17 -2 -21 2 -18 22 2 26 22 55 36
55 5 0 2 -11 -7 -25 -9 -14 -15 -27 -13 -28 54 -30 71 -38 65 -29 -3 6 -2 14
4 17 6 4 9 1 8 -7 -2 -7 4 -13 12 -13 8 0 15 7 15 15 0 9 -9 15 -22 14 -30 -2
-29 11 3 41 14 13 23 28 20 34 -9 14 15 61 31 61 7 0 13 5 13 10 0 6 -7 10
-15 10 -8 0 -15 -5 -15 -11 0 -8 -5 -8 -15 1 -8 7 -12 16 -9 21 3 5 0 9 -6 9
-7 0 -8 5 -3 13 4 6 8 14 8 17 2 15 32 50 43 50 7 0 11 4 7 9 -3 6 3 14 12 20
15 8 16 12 4 23 -8 8 -11 8 -7 1 10 -19 -30 -11 -42 8 -8 13 -6 19 14 28 13 6
24 15 24 21 0 5 0 13 0 18 0 4 -9 8 -20 8 -24 1 -26 -12 -4 -24 15 -8 15 -10
0 -15 -11 -5 -15 -3 -10 5 4 6 3 8 -2 5 -6 -3 -16 -2 -24 4 -12 7 -12 9 -1 9
8 0 11 6 7 16 -4 10 -2 13 6 8 6 -4 8 -3 5 3 -3 5 0 10 8 10 8 0 11 -5 8 -11
-4 -6 1 -5 10 3 13 10 15 17 6 27 -11 13 -9 16 18 18 7 1 12 3 11 6 -1 3 4 15
10 27 11 19 9 24 -10 35 -26 14 -90 19 -82 6z m70 -11 c4 -3 1 -14 -7 -24 -12
-15 -12 -16 2 -11 9 4 16 1 16 -8 0 -7 -4 -11 -9 -8 -5 3 -15 0 -24 -6 -10
-10 -11 -16 -3 -26 8 -10 6 -12 -9 -9 -12 2 -26 -3 -33 -11 -6 -8 -8 -14 -4
-14 4 0 2 -7 -5 -15 -10 -12 -9 -16 4 -21 9 -3 15 -11 14 -18 -1 -6 6 -26 15
-43 14 -26 14 -31 3 -27 -10 4 -13 0 -11 -13 1 -10 -4 -26 -13 -35 -8 -10 -11
-18 -6 -18 5 0 3 -4 -5 -9 -12 -8 -12 -13 3 -36 10 -15 13 -24 6 -20 -8 5 -11
3 -8 -6 3 -8 11 -13 17 -11 14 3 -2 -33 -19 -43 -6 -3 -10 -11 -10 -17 0 -7 6
-6 15 2 25 21 17 4 -16 -31 -23 -25 -27 -34 -17 -41 10 -7 10 -8 -2 -5 -8 2
-14 10 -12 17 2 8 -3 10 -14 6 -15 -6 -15 -4 -1 17 15 23 10 50 -9 48 -9 -1
-13 28 -6 42 2 4 10 3 18 -4 12 -9 18 -9 27 0 9 9 9 14 -3 21 -8 5 -11 10 -6
10 16 0 -16 30 -33 30 -24 0 -24 38 1 51 15 8 19 8 14 0 -4 -6 -3 -11 3 -11 5
0 8 -8 6 -18 -2 -11 3 -19 11 -19 8 0 14 4 14 9 0 4 -4 8 -9 8 -10 0 -9 19 2
37 4 6 3 14 -2 17 -13 8 -8 33 10 54 25 29 30 40 20 46 -5 4 -13 1 -17 -5 -5
-8 -3 -9 6 -4 9 5 11 4 6 -4 -11 -17 -28 -2 -21 20 4 13 2 19 -9 19 -9 0 -16
3 -16 8 0 16 18 33 31 30 8 -2 14 5 14 14 0 9 4 20 8 24 4 4 2 13 -4 21 -24
29 50 67 77 40z m-154 -99 c-9 -9 -12 -7 -12 12 0 19 3 21 12 12 9 -9 9 -15 0
-24z m18 -70 c0 -13 -23 -5 -28 10 -2 7 2 10 12 6 9 -3 16 -11 16 -16z m28
-400 c-10 -6 -10 -8 2 -9 11 0 12 -2 2 -6 -10 -4 -8 -9 7 -20 13 -8 18 -19 14
-26 -14 -23 -11 -37 10 -52 21 -14 18 -16 -20 -18 -10 -1 -22 -7 -26 -14 -10
-16 0 -36 14 -28 5 4 9 1 9 -4 0 -14 -27 -14 -35 -1 -4 6 -16 8 -28 4 -21 -6
-21 -6 -4 20 15 23 16 27 3 32 -12 5 -13 11 -4 29 6 13 14 24 17 23 20 -2 28
4 26 20 -3 28 -16 52 -26 46 -5 -3 -9 -1 -9 4 0 5 14 9 30 9 20 0 26 -3 18 -9z
m-68 -39 c0 -11 -4 -17 -10 -14 -5 3 -10 13 -10 21 0 8 5 14 10 14 6 0 10 -9
10 -21z m90 -185 c0 -8 -19 -13 -24 -6 -3 5 1 9 9 9 8 0 15 -2 15 -3z m1 -79
c1 -17 21 -35 33 -28 7 4 7 2 -1 -7 -7 -8 -19 -10 -30 -5 -10 5 -21 7 -25 7
-4 -1 -7 9 -6 23 2 24 29 33 29 10z m-16 -73 c-3 -3 -11 0 -18 7 -9 10 -8 11
6 5 10 -3 15 -9 12 -12z"/>
<path d="M5078 6653 c-8 -10 -8 -17 0 -25 8 -8 9 -15 1 -25 -7 -7 -10 -13 -8
-14 31 -6 40 -6 35 -2 -3 4 1 15 11 25 9 10 13 18 8 18 -4 0 -2 7 5 15 7 9 10
18 6 22 -3 3 -6 1 -6 -5 0 -7 -5 -12 -11 -12 -5 0 -8 4 -5 8 9 14 -24 10 -36
-5z m31 -12 c8 -14 6 -22 -12 -37 -12 -10 -16 -12 -10 -4 9 10 9 17 2 26 -6 7
-8 18 -4 24 9 14 13 13 24 -9z"/>
<path d="M5037 6553 c-4 -6 0 -13 8 -17 8 -3 17 0 21 6 4 6 3 8 -4 4 -5 -3
-12 -1 -14 6 -3 8 -6 9 -11 1z"/>
<path d="M5054 6449 c-19 -22 -20 -25 -3 -46 7 -7 6 -13 0 -17 -6 -4 -8 -13
-4 -22 4 -12 9 -10 22 8 9 13 16 31 16 40 0 9 3 19 7 23 8 8 -1 35 -12 35 -4
0 -15 -9 -26 -21z m28 -12 c-5 -7 -8 -20 -7 -29 2 -9 -4 -23 -13 -30 -15 -11
-15 -11 -4 4 8 10 9 19 3 22 -5 3 -8 12 -7 19 3 21 17 38 27 31 6 -3 6 -10 1
-17z"/>
<path d="M5050 6309 c0 -11 4 -18 10 -14 5 3 7 12 3 20 -7 21 -13 19 -13 -6z"/>
<path d="M5042 6255 c-19 -20 -21 -25 -9 -37 12 -11 12 -14 -1 -24 -12 -9 -12
-13 -2 -19 8 -5 11 -4 7 2 -4 6 0 14 9 17 8 3 12 11 9 17 -4 5 1 19 11 30 27
30 4 43 -24 14z m18 -10 c-7 -8 -16 -15 -21 -15 -5 0 -1 8 9 18 20 22 31 19
12 -3z"/>
<path d="M5003 6249 c-2 -23 3 -25 10 -4 4 8 3 16 -1 19 -4 3 -9 -4 -9 -15z"/>
<path d="M5039 6056 c-1 -3 -3 -10 -4 -16 -1 -5 -3 -14 -4 -20 0 -5 -4 -9 -8
-9 -5 1 -15 1 -23 0 -12 -1 -12 -4 3 -12 9 -5 17 -15 17 -21 0 -6 -7 -5 -17 3
-16 13 -17 12 -5 -3 8 -9 11 -23 7 -30 -4 -7 1 -4 9 6 9 11 16 23 16 28 0 4 5
8 11 8 5 0 8 -4 5 -8 -3 -5 2 -9 11 -9 12 0 11 5 -7 19 -12 10 -16 18 -9 18 7
0 9 3 6 7 -4 3 -2 12 4 19 7 8 7 14 -1 19 -5 3 -11 4 -11 1z"/>
<path d="M5046 5791 c-3 -5 2 -15 12 -22 15 -12 16 -12 5 2 -7 9 -10 19 -6 22
3 4 4 7 0 7 -3 0 -8 -4 -11 -9z"/>
<path d="M4931 6626 c-9 -10 -8 -15 2 -19 8 -3 13 3 13 14 0 23 0 23 -15 5z"/>
<path d="M4855 6600 c3 -5 8 -10 11 -10 2 0 4 5 4 10 0 6 -5 10 -11 10 -5 0
-7 -4 -4 -10z"/>
<path d="M4950 6565 c0 -5 5 -17 10 -25 5 -8 10 -10 10 -5 0 6 -5 17 -10 25
-5 8 -10 11 -10 5z"/>
<path d="M4936 6523 c-6 -14 -5 -15 5 -6 7 7 10 15 7 18 -3 3 -9 -2 -12 -12z"/>
<path d="M4897 6499 c4 -13 8 -18 11 -10 2 7 -1 18 -6 23 -8 8 -9 4 -5 -13z"/>
<path d="M4930 6465 c0 -8 4 -15 10 -15 5 0 7 7 4 15 -4 8 -8 15 -10 15 -2 0
-4 -7 -4 -15z"/>
<path d="M4965 6460 c-3 -6 1 -7 9 -4 18 7 21 14 7 14 -6 0 -13 -4 -16 -10z"/>
<path d="M4940 6436 c0 -2 7 -6 15 -10 8 -3 15 -1 15 4 0 6 -7 10 -15 10 -8 0
-15 -2 -15 -4z"/>
<path d="M4910 6421 c0 -6 4 -12 8 -15 5 -3 9 1 9 9 0 8 -4 15 -9 15 -4 0 -8
-4 -8 -9z"/>
<path d="M4897 6379 c4 -13 8 -18 11 -10 2 7 -1 18 -6 23 -8 8 -9 4 -5 -13z"/>
<path d="M4816 6362 c-3 -4 4 -9 15 -9 23 -2 25 3 4 10 -8 4 -16 3 -19 -1z"/>
<path d="M4867 6359 c7 -7 15 -10 18 -7 3 3 -2 9 -12 12 -14 6 -15 5 -6 -5z"/>
<path d="M4926 6304 c-9 -13 -12 -24 -6 -24 5 0 10 5 10 11 0 5 4 7 10 4 6 -4
7 1 3 12 -6 16 -5 16 10 4 9 -7 17 -9 17 -3 0 22 -29 20 -44 -4z"/>
<path d="M4855 6299 c-3 -4 2 -6 10 -5 21 3 28 13 10 13 -9 0 -18 -4 -20 -8z"/>
<path d="M4845 6260 c-3 -6 1 -7 9 -4 18 7 21 14 7 14 -6 0 -13 -4 -16 -10z"/>
<path d="M4955 6250 c3 -5 8 -10 11 -10 2 0 4 5 4 10 0 6 -5 10 -11 10 -5 0
-7 -4 -4 -10z"/>
<path d="M4825 6220 c-3 -6 1 -7 9 -4 18 7 21 14 7 14 -6 0 -13 -4 -16 -10z"/>
<path d="M4877 6189 c12 -12 25 -20 28 -17 3 3 -7 13 -22 23 l-28 17 22 -23z"/>
<path d="M4877 6149 c12 -12 24 -21 27 -18 2 2 -8 13 -22 23 l-27 19 22 -24z"/>
<path d="M4912 6161 c-11 -6 -10 -10 4 -15 9 -3 19 -4 22 -1 3 3 0 5 -7 5 -7
0 -9 5 -6 10 7 12 4 12 -13 1z"/>
<path d="M4840 6146 c0 -2 8 -10 18 -17 15 -13 16 -12 3 4 -13 16 -21 21 -21
13z"/>
<path d="M4816 6118 c3 -5 10 -6 15 -3 13 9 11 12 -6 12 -8 0 -12 -4 -9 -9z"/>
<path d="M4910 6111 c0 -10 19 -25 25 -20 1 2 -3 10 -11 17 -8 7 -14 8 -14 3z"/>
<path d="M4890 6080 c-9 -6 -10 -10 -3 -10 6 0 15 5 18 10 8 12 4 12 -15 0z"/>
<path d="M4855 6069 c-4 -6 -5 -12 -2 -15 2 -3 7 2 10 11 7 17 1 20 -8 4z"/>
<path d="M4914 6069 c-3 -6 -2 -15 3 -20 5 -5 9 -1 9 11 0 23 -2 24 -12 9z"/>
<path d="M4995 6060 c3 -5 8 -10 11 -10 2 0 4 5 4 10 0 6 -5 10 -11 10 -5 0
-7 -4 -4 -10z"/>
<path d="M4870 6056 c0 -3 9 -10 20 -16 11 -6 20 -8 20 -6 0 3 -9 10 -20 16
-11 6 -20 8 -20 6z"/>
<path d="M4856 6027 c3 -10 9 -15 12 -12 3 3 0 11 -7 18 -10 9 -11 8 -5 -6z"/>
<path d="M4910 6020 c-8 -5 -10 -10 -5 -10 6 0 17 5 25 10 8 5 11 10 5 10 -5
0 -17 -5 -25 -10z"/>
<path d="M4874 5979 c-4 -7 -3 -9 4 -5 5 3 13 0 15 -6 4 -9 6 -10 6 -1 1 17
-16 25 -25 12z"/>
<path d="M4919 5988 c-8 -27 -5 -36 9 -31 13 3 13 1 -2 -11 -11 -9 -15 -16 -9
-16 6 0 16 7 23 15 10 12 9 16 -4 21 -9 3 -13 10 -10 15 3 5 3 9 0 9 -3 0 -6
-1 -7 -2z"/>
<path d="M5090 5940 c0 -5 5 -10 11 -10 5 0 7 5 4 10 -3 6 -8 10 -11 10 -2 0
-4 -4 -4 -10z"/>
<path d="M7244 5934 c-314 -97 -429 -145 -589 -243 -117 -71 -169 -114 -286
-232 -226 -229 -369 -508 -423 -829 -16 -98 -31 -370 -21 -400 5 -16 10 -16
95 1 214 44 406 104 535 167 205 101 363 208 468 317 184 191 309 451 342 710
7 52 8 255 1 290 -2 11 -7 43 -11 70 -5 28 -9 52 -10 55 -28 121 -25 117 -101
94z"/>
<path d="M4871 5923 c-1 -17 19 -27 31 -15 6 6 6 12 -3 17 -8 5 -10 4 -5 -3 4
-7 3 -12 -3 -12 -5 0 -12 6 -14 13 -4 9 -6 9 -6 0z"/>
<path d="M5141 5901 c-7 -12 -17 -18 -23 -15 -7 4 -8 3 -4 -4 4 -7 2 -12 -4
-12 -6 0 -8 -4 -5 -10 3 -5 1 -11 -4 -11 -6 -1 -15 -2 -21 -3 -5 0 -10 -4 -10
-8 0 -5 0 -11 0 -16 0 -4 10 -13 23 -21 22 -14 22 -13 4 7 -18 19 -9 40 12 28
12 -8 34 21 26 34 -6 9 7 14 28 11 9 -1 9 11 -2 28 -7 11 -11 9 -20 -8z"/>
<path d="M4816 5878 c3 -5 10 -6 15 -3 13 9 11 12 -6 12 -8 0 -12 -4 -9 -9z"/>
<path d="M4890 5862 c0 -5 7 -9 15 -9 8 0 12 4 9 9 -3 4 -9 8 -15 8 -5 0 -9
-4 -9 -8z"/>
<path d="M4867 5839 c7 -7 15 -10 18 -7 3 3 -2 9 -12 12 -14 6 -15 5 -6 -5z"/>
<path d="M4923 5835 c-3 -9 -3 -18 -1 -21 3 -3 8 4 11 16 6 23 -1 27 -10 5z"/>
<path d="M4836 5822 c-3 -5 1 -9 9 -9 8 0 12 4 9 9 -3 4 -7 8 -9 8 -2 0 -6 -4
-9 -8z"/>
<path d="M4795 5809 c-4 -6 -5 -12 -2 -15 2 -3 7 2 10 11 7 17 1 20 -8 4z"/>
<path d="M4829 5783 c-13 -16 -12 -17 4 -4 16 13 21 21 13 21 -2 0 -10 -8 -17
-17z"/>
<path d="M5103 5748 c-19 -31 -11 -46 16 -29 9 6 10 11 2 15 -6 4 -9 12 -6 17
4 5 4 9 1 9 -3 0 -8 -6 -13 -12z"/>
<path d="M4915 5740 c3 -5 8 -10 11 -10 2 0 4 5 4 10 0 6 -5 10 -11 10 -5 0
-7 -4 -4 -10z"/>
<path d="M4940 5726 c0 -2 7 -7 16 -10 8 -3 12 -2 9 4 -6 10 -25 14 -25 6z"/>
</g>
</svg>
